<mxfile host="app.diagrams.net" agent="Mozilla/5.0 (Windows NT 10.0; Win64; x64) AppleWebKit/537.36 (KHTML, like Gecko) Chrome/140.0.0.0 Safari/537.36" version="28.2.3">
  <diagram name="Page-1" id="fXGS3WGPMxvug3N6TuJr">
    <mxGraphModel dx="1042" dy="562" grid="1" gridSize="10" guides="1" tooltips="1" connect="1" arrows="1" fold="1" page="1" pageScale="1" pageWidth="850" pageHeight="1100" math="0" shadow="0">
      <root>
        <mxCell id="0" />
        <mxCell id="1" parent="0" />
        <mxCell id="yV82LMLnAX8XkScU1fnd-3" value="" style="edgeStyle=orthogonalEdgeStyle;rounded=0;orthogonalLoop=1;jettySize=auto;html=1;" edge="1" parent="1" source="yV82LMLnAX8XkScU1fnd-1" target="yV82LMLnAX8XkScU1fnd-2">
          <mxGeometry relative="1" as="geometry" />
        </mxCell>
        <mxCell id="yV82LMLnAX8XkScU1fnd-1" value="Start" style="ellipse;whiteSpace=wrap;html=1;fillColor=#d5e8d4;strokeColor=#82b366;" vertex="1" parent="1">
          <mxGeometry x="365" y="40" width="120" height="80" as="geometry" />
        </mxCell>
        <mxCell id="yV82LMLnAX8XkScU1fnd-7" value="" style="edgeStyle=orthogonalEdgeStyle;rounded=0;orthogonalLoop=1;jettySize=auto;html=1;" edge="1" parent="1" source="yV82LMLnAX8XkScU1fnd-2" target="yV82LMLnAX8XkScU1fnd-6">
          <mxGeometry relative="1" as="geometry" />
        </mxCell>
        <mxCell id="yV82LMLnAX8XkScU1fnd-2" value="&lt;font style=&quot;color: rgb(0, 0, 0);&quot;&gt;NEW USER?&lt;/font&gt;" style="rhombus;whiteSpace=wrap;html=1;fillColor=#e51400;strokeColor=#B20000;fontColor=#ffffff;" vertex="1" parent="1">
          <mxGeometry x="389" y="160" width="73" height="80" as="geometry" />
        </mxCell>
        <mxCell id="yV82LMLnAX8XkScU1fnd-9" value="" style="edgeStyle=orthogonalEdgeStyle;rounded=0;orthogonalLoop=1;jettySize=auto;html=1;" edge="1" parent="1" source="yV82LMLnAX8XkScU1fnd-6" target="yV82LMLnAX8XkScU1fnd-8">
          <mxGeometry relative="1" as="geometry" />
        </mxCell>
        <mxCell id="yV82LMLnAX8XkScU1fnd-6" value="&lt;font style=&quot;color: rgb(0, 0, 0);&quot;&gt;Recognize&lt;/font&gt;&lt;div&gt;&lt;font style=&quot;color: rgb(0, 0, 0);&quot;&gt;the Face&lt;/font&gt;&lt;/div&gt;" style="shape=parallelogram;perimeter=parallelogramPerimeter;whiteSpace=wrap;html=1;fixedSize=1;fillColor=#d80073;fontColor=#ffffff;strokeColor=#A50040;" vertex="1" parent="1">
          <mxGeometry x="365.5" y="280" width="120" height="60" as="geometry" />
        </mxCell>
        <mxCell id="yV82LMLnAX8XkScU1fnd-11" value="" style="edgeStyle=orthogonalEdgeStyle;rounded=0;orthogonalLoop=1;jettySize=auto;html=1;" edge="1" parent="1" source="yV82LMLnAX8XkScU1fnd-8" target="yV82LMLnAX8XkScU1fnd-10">
          <mxGeometry relative="1" as="geometry" />
        </mxCell>
        <mxCell id="yV82LMLnAX8XkScU1fnd-8" value="Face&lt;div&gt;Recognized&lt;/div&gt;" style="rhombus;whiteSpace=wrap;html=1;fillColor=#dae8fc;strokeColor=#6c8ebf;" vertex="1" parent="1">
          <mxGeometry x="385.5" y="400" width="80" height="80" as="geometry" />
        </mxCell>
        <mxCell id="yV82LMLnAX8XkScU1fnd-13" value="" style="edgeStyle=orthogonalEdgeStyle;rounded=0;orthogonalLoop=1;jettySize=auto;html=1;" edge="1" parent="1" source="yV82LMLnAX8XkScU1fnd-10" target="yV82LMLnAX8XkScU1fnd-12">
          <mxGeometry relative="1" as="geometry" />
        </mxCell>
        <mxCell id="yV82LMLnAX8XkScU1fnd-10" value="Store in csv file&lt;div&gt;with registration&lt;/div&gt;&lt;div&gt;Number and Date&lt;/div&gt;&lt;div&gt;Time of Entry&lt;/div&gt;" style="shape=parallelogram;perimeter=parallelogramPerimeter;whiteSpace=wrap;html=1;fixedSize=1;fillColor=#fa6800;fontColor=#000000;strokeColor=#C73500;" vertex="1" parent="1">
          <mxGeometry x="365.5" y="520" width="120" height="60" as="geometry" />
        </mxCell>
        <mxCell id="yV82LMLnAX8XkScU1fnd-12" value="End" style="ellipse;whiteSpace=wrap;html=1;fillColor=#ffe6cc;strokeColor=#d79b00;" vertex="1" parent="1">
          <mxGeometry x="365" y="640" width="120" height="80" as="geometry" />
        </mxCell>
        <mxCell id="yV82LMLnAX8XkScU1fnd-16" value="Give your&amp;nbsp;&lt;div&gt;photography&lt;/div&gt;" style="whiteSpace=wrap;html=1;fillColor=#fff2cc;strokeColor=#d6b656;" vertex="1" parent="1">
          <mxGeometry x="610" y="170" width="159.5" height="60" as="geometry" />
        </mxCell>
        <mxCell id="yV82LMLnAX8XkScU1fnd-21" value="" style="endArrow=none;html=1;rounded=0;exitX=1;exitY=0.5;exitDx=0;exitDy=0;entryX=0;entryY=0.5;entryDx=0;entryDy=0;" edge="1" parent="1" source="yV82LMLnAX8XkScU1fnd-2" target="yV82LMLnAX8XkScU1fnd-16">
          <mxGeometry width="50" height="50" relative="1" as="geometry">
            <mxPoint x="400" y="270" as="sourcePoint" />
            <mxPoint x="520" y="200" as="targetPoint" />
          </mxGeometry>
        </mxCell>
        <mxCell id="yV82LMLnAX8XkScU1fnd-23" value="Store the face&lt;div&gt;data in the folder&lt;/div&gt;&lt;div&gt;on your name&lt;/div&gt;" style="whiteSpace=wrap;html=1;fillColor=#e1d5e7;strokeColor=#9673a6;" vertex="1" parent="1">
          <mxGeometry x="610" y="280" width="159.5" height="60" as="geometry" />
        </mxCell>
        <mxCell id="yV82LMLnAX8XkScU1fnd-24" value="" style="endArrow=none;html=1;rounded=0;exitX=1;exitY=0.5;exitDx=0;exitDy=0;entryX=0;entryY=0.5;entryDx=0;entryDy=0;" edge="1" parent="1" source="yV82LMLnAX8XkScU1fnd-6" target="yV82LMLnAX8XkScU1fnd-23">
          <mxGeometry width="50" height="50" relative="1" as="geometry">
            <mxPoint x="480" y="320" as="sourcePoint" />
            <mxPoint x="610" y="320" as="targetPoint" />
          </mxGeometry>
        </mxCell>
        <mxCell id="yV82LMLnAX8XkScU1fnd-25" value="" style="endArrow=none;html=1;rounded=0;exitX=1;exitY=0.5;exitDx=0;exitDy=0;" edge="1" parent="1">
          <mxGeometry width="50" height="50" relative="1" as="geometry">
            <mxPoint x="463" y="439.5" as="sourcePoint" />
            <mxPoint x="800" y="440" as="targetPoint" />
          </mxGeometry>
        </mxCell>
        <mxCell id="yV82LMLnAX8XkScU1fnd-26" value="" style="endArrow=none;html=1;rounded=0;" edge="1" parent="1">
          <mxGeometry width="50" height="50" relative="1" as="geometry">
            <mxPoint x="800" y="120" as="sourcePoint" />
            <mxPoint x="800" y="440" as="targetPoint" />
          </mxGeometry>
        </mxCell>
        <mxCell id="yV82LMLnAX8XkScU1fnd-28" value="" style="endArrow=none;html=1;rounded=0;" edge="1" parent="1">
          <mxGeometry width="50" height="50" relative="1" as="geometry">
            <mxPoint x="680" y="120" as="sourcePoint" />
            <mxPoint x="800" y="120" as="targetPoint" />
          </mxGeometry>
        </mxCell>
        <mxCell id="yV82LMLnAX8XkScU1fnd-29" value="" style="endArrow=none;html=1;rounded=0;" edge="1" parent="1">
          <mxGeometry width="50" height="50" relative="1" as="geometry">
            <mxPoint x="680" y="170" as="sourcePoint" />
            <mxPoint x="680" y="120" as="targetPoint" />
          </mxGeometry>
        </mxCell>
        <mxCell id="yV82LMLnAX8XkScU1fnd-31" value="Yes" style="text;html=1;align=center;verticalAlign=middle;resizable=0;points=[];autosize=1;strokeColor=none;fillColor=none;" vertex="1" parent="1">
          <mxGeometry x="510" y="170" width="40" height="30" as="geometry" />
        </mxCell>
        <mxCell id="yV82LMLnAX8XkScU1fnd-32" value="Yes" style="text;html=1;align=center;verticalAlign=middle;resizable=0;points=[];autosize=1;strokeColor=none;fillColor=none;" vertex="1" parent="1">
          <mxGeometry x="389" y="480" width="40" height="30" as="geometry" />
        </mxCell>
        <mxCell id="yV82LMLnAX8XkScU1fnd-34" value="No" style="text;html=1;align=center;verticalAlign=middle;resizable=0;points=[];autosize=1;strokeColor=none;fillColor=none;" vertex="1" parent="1">
          <mxGeometry x="380" y="240" width="40" height="30" as="geometry" />
        </mxCell>
        <mxCell id="yV82LMLnAX8XkScU1fnd-35" value="No" style="text;html=1;align=center;verticalAlign=middle;resizable=0;points=[];autosize=1;strokeColor=none;fillColor=none;" vertex="1" parent="1">
          <mxGeometry x="530" y="410" width="40" height="30" as="geometry" />
        </mxCell>
      </root>
    </mxGraphModel>
  </diagram>
</mxfile>
